<svg width="120" height="71" viewBox="0 0 120 71" fill="none" xmlns="http://www.w3.org/2000/svg">
<path d="M40.5558 68.4333C19.4908 68.4333 10.7292 60.7257 8.6173 56.288C8.44276 55.9213 8.66753 55.5004 9.05162 55.3683C25.6285 49.6663 19.3634 43.4529 28.3732 22.5881C35.1822 6.81968 53.184 2.71694 63.0462 2.53136C63.7292 2.51851 64.0457 3.43243 63.6161 3.96359C61.3171 6.80579 61.2026 10.7543 61.5607 13.1189C61.6264 13.5528 62.084 13.7923 62.4968 13.6434C78.9337 7.71359 93.1457 11.2895 99.6619 14.482C100.258 14.7741 100.121 15.6418 99.4918 15.8536C95.4285 17.2215 93.3385 20.0739 92.5724 21.9054C92.4176 22.2753 92.6512 22.6764 93.0356 22.7902C109.003 27.519 115.502 39.1517 117.163 45.7675C117.319 46.3885 116.614 46.8382 116.049 46.5361C113.343 45.0881 110.441 44.6889 108.658 44.6753C108.183 44.6716 107.878 45.1461 108.03 45.5968C111.014 54.4636 111.074 63.648 110.675 67.7989C110.64 68.164 110.344 68.4333 109.978 68.4333H40.5558Z" stroke="#2F1814" stroke-width="4.60013" stroke-linecap="round" stroke-linejoin="round"/>
<path d="M108.029 45.5971C111.013 54.4638 111.074 63.6482 110.675 67.7991C110.64 68.1642 110.342 68.4335 109.975 68.4335H47.2411C46.7718 68.4335 46.43 67.9986 46.5116 67.5365C47.8448 59.9817 45.0391 45.0321 23.8808 38.6319C23.5084 38.5192 23.2752 38.134 23.3681 37.7561C24.3498 33.7586 25.6781 28.8288 28.3728 22.5883C35.1819 6.81992 53.1837 2.71718 63.0459 2.5316C63.7289 2.51875 64.0454 3.43268 63.6158 3.96383C61.3168 6.80604 61.2023 10.7545 61.5604 13.1191C61.6261 13.553 62.0837 13.7926 62.4965 13.6437C78.9334 7.71384 93.1453 11.2898 99.6616 14.4823C100.258 14.7744 100.121 15.642 99.4914 15.8538C95.4282 17.2218 93.3382 20.0741 92.572 21.9057C92.4173 22.2755 92.6509 22.6766 93.0353 22.7905C109.003 27.5192 115.502 39.152 117.163 45.7677C117.318 46.3887 116.614 46.8384 116.049 46.5364C113.342 45.0883 110.44 44.6891 108.658 44.6755C108.182 44.6719 107.878 45.1464 108.029 45.5971Z" fill="#BB9776" stroke="#2F1814" stroke-width="4.60013" stroke-linecap="round" stroke-linejoin="round"/>
<path d="M53.5 62H69M48 50.5L55 48.5" stroke="#945342" stroke-width="4" stroke-linecap="round" stroke-linejoin="round"/>
<path d="M34 30L38.5 21M40 32.5L43 28.5" stroke="#945342" stroke-width="4" stroke-linecap="round" stroke-linejoin="round"/>
<path d="M44.628 41.0573L54.1634 36" stroke="#FFF9E8" stroke-width="4" stroke-linecap="round" stroke-linejoin="round"/>
<circle cx="5.45013" cy="54.4611" r="5.45013" fill="#2F1814"/>
<ellipse cx="29.1049" cy="54.2669" rx="3.95256" ry="5.03053" fill="#2F1814"/>
</svg>
